<svg xmlns="http://www.w3.org/2000/svg" width="512" height="512" version="1.0" viewBox="0 0 384 384"><defs><clipPath id="b"><path d="M0 0h361.41v361.41H0Zm0 0"/></clipPath><clipPath id="c"><path d="M52.5 0h256.41a52.5 52.5 0 0 1 37.125 15.375A52.5 52.5 0 0 1 361.41 52.5v256.41c0 28.996-23.504 52.5-52.5 52.5H52.5a52.5 52.5 0 0 1-37.125-15.375A52.5 52.5 0 0 1 0 308.91V52.5C0 23.504 23.504 0 52.5 0m0 0"/></clipPath><clipPath id="e"><path d="M0 0h361.41v361.41H0Zm0 0"/></clipPath><clipPath id="f"><path d="M52.5 0h256.41a52.5 52.5 0 0 1 37.125 15.375A52.5 52.5 0 0 1 361.41 52.5v256.41c0 28.996-23.504 52.5-52.5 52.5H52.5a52.5 52.5 0 0 1-37.125-15.375A52.5 52.5 0 0 1 0 308.91V52.5C0 23.504 23.504 0 52.5 0m0 0"/></clipPath><clipPath id="d"><path d="M0 0h362v362H0z"/></clipPath><clipPath id="g"><path d="M0 0h361.41v361.41H0Zm0 0"/></clipPath><clipPath id="h"><path d="M52.5 0h256.41a52.5 52.5 0 0 1 52.5 52.5v256.41c0 28.992-23.508 52.5-52.5 52.5H52.5A52.5 52.5 0 0 1 0 308.91V52.5C0 23.504 23.504 0 52.5 0m0 0"/></clipPath><clipPath id="i"><path d="M70.703 72.676h242.645v50.176H70.703Zm0 0"/></clipPath><clipPath id="j"><path d="M79.703 72.676h224.594a9 9 0 0 1 9 9v32.176c0 4.972-4.027 9-9 9H79.703c-4.973 0-9-4.028-9-9V81.676a9 9 0 0 1 9-9m0 0"/></clipPath><clipPath id="l"><path d="M.703.676h242.645v50.176H.703Zm0 0"/></clipPath><clipPath id="m"><path d="M9.703.676h224.594a9 9 0 0 1 9 9v32.176c0 4.972-4.027 9-9 9H9.703c-4.973 0-9-4.028-9-9V9.676a9 9 0 0 1 9-9m0 0"/></clipPath><clipPath id="k"><path d="M0 0h244v51H0z"/></clipPath><clipPath id="n"><path d="M70.703 155.617h181.692v50.176H70.703Zm0 0"/></clipPath><clipPath id="o"><path d="M79.703 155.617h163.672c4.969 0 9 4.031 9 9v32.176a9 9 0 0 1-9 9H79.703c-4.973 0-9-4.027-9-9v-32.176a9 9 0 0 1 9-9m0 0"/></clipPath><clipPath id="q"><path d="M.703.617h181.692v50.176H.703Zm0 0"/></clipPath><clipPath id="r"><path d="M9.703.617h163.672c4.969 0 9 4.031 9 9v32.176a9 9 0 0 1-9 9H9.703c-4.973 0-9-4.027-9-9V9.617a9 9 0 0 1 9-9m0 0"/></clipPath><clipPath id="p"><path d="M0 0h183v51H0z"/></clipPath><clipPath id="s"><path d="M70.703 238.559H192v50.175H70.703Zm0 0"/></clipPath><clipPath id="t"><path d="M79.703 238.559H183c4.969 0 9 4.03 9 9v32.175c0 4.97-4.031 9-9 9H79.703a9 9 0 0 1-9-9V247.56a9 9 0 0 1 9-9m0 0"/></clipPath><clipPath id="v"><path d="M.703.559H122v50.175H.703Zm0 0"/></clipPath><clipPath id="w"><path d="M9.703.559H113c4.969 0 9 4.03 9 9v32.175c0 4.97-4.031 9-9 9H9.703a9 9 0 0 1-9-9V9.56a9 9 0 0 1 9-9m0 0"/></clipPath><clipPath id="u"><path d="M0 0h122v51H0z"/></clipPath><clipPath id="x"><path d="M229.934 229.934H384V384H229.934Zm0 0"/></clipPath><clipPath id="y"><path d="M306.969 229.934c-42.547 0-77.035 34.488-77.035 77.035 0 42.543 34.488 77.031 77.035 77.031C349.512 384 384 349.512 384 306.969c0-42.547-34.488-77.035-77.031-77.035m0 0"/></clipPath><clipPath id="A"><path d="M.934.934H155V155H.934Zm0 0"/></clipPath><clipPath id="B"><path d="M77.969.934C35.422.934.934 35.422.934 77.969.934 120.512 35.422 155 77.969 155 120.512 155 155 120.512 155 77.969 155 35.422 120.512.934 77.969.934m0 0"/></clipPath><clipPath id="z"><path d="M0 0h155v155H0z"/></clipPath><clipPath id="C"><path d="M229.934 229.934h154.054v154.054H229.934Zm0 0"/></clipPath><clipPath id="D"><path d="M306.96 229.934c-42.538 0-77.026 34.488-77.026 77.027s34.488 77.027 77.027 77.027 77.027-34.488 77.027-77.027-34.488-77.027-77.027-77.027m0 0"/></clipPath><clipPath id="E"><path d="M0 0h82v157H0z"/></clipPath><clipPath id="a"><path d="M0 0h384v384H0z"/></clipPath></defs><g clip-path="url(#a)"><g clip-path="url(#b)"><g clip-path="url(#c)"><g clip-path="url(#d)"><g clip-path="url(#e)"><g clip-path="url(#f)"><path fill="#fff" d="M0 0h361.41v361.41H0Zm0 0"/></g></g></g></g></g><g clip-path="url(#g)"><g clip-path="url(#h)"><path fill="none" stroke="#000" stroke-width="10.49992398" d="M52.5 0h256.41a52.5 52.5 0 0 1 52.5 52.5v256.41c0 28.992-23.508 52.5-52.5 52.5H52.5A52.5 52.5 0 0 1 0 308.91V52.5C0 23.504 23.504 0 52.5 0Zm0 0"/></g></g><g clip-path="url(#i)"><g clip-path="url(#j)"><g clip-path="url(#k)" transform="translate(70 72)"><g clip-path="url(#l)"><g clip-path="url(#m)"><path d="M.703.676h242.645v50.176H.703Zm0 0"/></g></g></g></g></g><g clip-path="url(#n)"><g clip-path="url(#o)"><g clip-path="url(#p)" transform="translate(70 155)"><g clip-path="url(#q)"><g clip-path="url(#r)"><path d="M.703.617h181.692v50.176H.703Zm0 0"/></g></g></g></g></g><g clip-path="url(#s)"><g clip-path="url(#t)"><g clip-path="url(#u)" transform="translate(70 238)"><g clip-path="url(#v)"><g clip-path="url(#w)"><path fill="#8f42ec" d="M.703.559h121.324v50.175H.703Zm0 0"/></g></g></g></g></g><g clip-path="url(#x)"><g clip-path="url(#y)"><g clip-path="url(#z)" transform="translate(229 229)"><g clip-path="url(#A)"><g clip-path="url(#B)"><path fill="#fff" d="M.934.934H155V155H.934Zm0 0"/></g></g></g></g></g><g clip-path="url(#C)"><g clip-path="url(#D)"><path fill="none" stroke="#8f42ec" stroke-width="11.999913120000002" d="M306.96 229.934c-42.538 0-77.026 34.488-77.026 77.027s34.488 77.027 77.027 77.027 77.027-34.488 77.027-77.027-34.488-77.027-77.027-77.027Zm0 0"/></g></g><g clip-path="url(#E)" transform="translate(270 227)"><path fill="#8f42ec" d="M34.878 40.19c8.375 0 15.71 1.606 22.015 4.813q9.47 4.816 14.625 13.828c3.438 6 5.157 13.008 5.157 21.015q0 12.002-5.157 20.844-5.156 8.832-14.625 13.531-9.454 4.705-22.015 4.704H9.159V40.19Zm0 68.203q13.811.001 21.172-7.468c4.914-4.989 7.375-12.016 7.375-21.079 0-9.144-2.461-16.285-7.375-21.421-4.907-5.133-11.965-7.704-21.172-7.704H22.065v57.672Zm0 0"/></g></g></svg>